# xmcd
#
# Track frame offsets:
#	150
#	19234
#	34360
#	50239
#	65833
#	78985
#	93310
#	105815
#	125214
#	138774
#	157228
#	176039
#	190782
#	209215
#	225178
#	242933
#	259431
#	272895
#	291803
#	307757
#
# Disc length: 4351 seconds
#
# Revision: 1
# Processed by: cddbd v1.5.2PL0 Copyright (c) Steve Scherf et al.
# Submitted via: audiograbber 1.83.01
#
DISCID=2e10fd14
DTITLE=Juice Newton - Juice - Ouiet lies
DYEAR=2011
DGENRE=Country
TTITLE0=Angel of the morning
TTITLE1=Shout full of love
TTITLE2=Ride 'em Cowboy
TTITLE3=Queen of hearts
TTITLE4=River of love
TTITLE5=All i have to do is dream
TTITLE6=Headin' for a heartache
TTITLE7=Country comfort
TTITLE8=Texas heartache
TTITLE9=The sweetest thing (I've ever known)
TTITLE10=Heart of the night
TTITLE11=Love's been a little bit hard on me
TTITLE12=Break it to me gently
TTITLE13=Love sail away
TTITLE14=I'm dancing as fast as i can
TTITLE15=I'm gonna be strong
TTITLE16=Trail of tears
TTITLE17=Adios mi corazon
TTITLE18=Falling in love
TTITLE19=Ever true
EXTD=
EXTT0=
EXTT1=
EXTT2=
EXTT3=
EXTT4=
EXTT5=
EXTT6=
EXTT7=
EXTT8=
EXTT9=
EXTT10=
EXTT11=
EXTT12=
EXTT13=
EXTT14=
EXTT15=
EXTT16=
EXTT17=
EXTT18=
EXTT19=
PLAYORDER=
